<?xml version="1.0" encoding="UTF-8"?>
<!DOCTYPE svg PUBLIC "-//W3C//DTD SVG 1.1//EN" "http://www.w3.org/Graphics/SVG/1.1/DTD/svg11.dtd">
<!-- Creator: CorelDRAW 2021.5 -->
<svg xmlns="http://www.w3.org/2000/svg" xml:space="preserve" width="99px" height="19px" version="1.1" style="shape-rendering:geometricPrecision; text-rendering:geometricPrecision; image-rendering:optimizeQuality; fill-rule:evenodd; clip-rule:evenodd"
viewBox="0 0 99.9 19.1"
 xmlns:xlink="http://www.w3.org/1999/xlink"
 xmlns:xodm="http://www.corel.com/coreldraw/odm/2003">
 <defs>
  <style type="text/css">
   <![CDATA[
    .fil0 {fill:white}
    .fil1 {fill:white;fill-rule:nonzero}
   ]]>
  </style>
 </defs>
 <g id="Camada_x0020_1">
  <metadata id="CorelCorpID_0Corel-Layer"/>
  <g id="_105553188640288">
   <g>
    <path class="fil0" d="M37.49 11.31c-0.06,-0.14 -0.06,-0.49 0.14,-0.84l5.37 -8.99c0.06,-0.11 0.13,-0.18 0.17,-0.22 0.02,0.08 0.03,0.21 -0.01,0.4l-1.47 7.44 1.36 -0.54 1.31 -6.67c0.2,-0.98 -0.23,-1.62 -0.74,-1.82 -0.46,-0.17 -1.16,-0.07 -1.67,0.79l-5.37 8.98c-0.41,0.69 -0.47,1.54 -0.14,2.11 0.21,0.37 0.56,0.58 0.97,0.58l2.63 0 0.28 -1.22 -2.83 0z"/>
    <path class="fil0" d="M48.01 7.15c-0.21,-0.37 -0.56,-0.58 -0.97,-0.58l-2.57 0 -0.27 1.18 2.77 0.04c0.05,0.14 0.05,0.5 -0.15,0.85l-5.37 8.98c-0.06,0.11 -0.12,0.18 -0.17,0.22 -0.02,-0.07 -0.03,-0.2 0.01,-0.39l1.48 -7.5 -1.35 0.55 -1.33 6.71c-0.2,0.99 0.23,1.63 0.74,1.82 0.12,0.05 0.25,0.07 0.4,0.07 0.41,0 0.9,-0.22 1.27,-0.85l5.37 -8.99c0.41,-0.69 0.47,-1.53 0.14,-2.11z"/>
   </g>
   <path class="fil1" d="M3.33 6.47c0.28,0 0.55,0.02 0.83,0.08 0.28,0.06 0.53,0.14 0.74,0.24l-0.15 0.62c-0.22,-0.09 -0.44,-0.16 -0.68,-0.21 -0.23,-0.05 -0.47,-0.08 -0.72,-0.08 -0.4,0 -0.76,0.08 -1.08,0.22 -0.31,0.14 -0.58,0.34 -0.8,0.59 -0.22,0.26 -0.38,0.55 -0.49,0.91 -0.11,0.35 -0.17,0.73 -0.17,1.14 0,0.31 0.05,0.59 0.13,0.83 0.08,0.25 0.2,0.47 0.38,0.65 0.17,0.18 0.37,0.31 0.64,0.41 0.26,0.1 0.55,0.16 0.9,0.16 0.21,0 0.43,-0.02 0.65,-0.06 0.22,-0.03 0.43,-0.08 0.64,-0.15l0.08 0.61c-0.22,0.08 -0.45,0.15 -0.71,0.19 -0.25,0.05 -0.51,0.06 -0.78,0.06 -0.42,0 -0.81,-0.07 -1.14,-0.2 -0.35,-0.14 -0.64,-0.33 -0.87,-0.57 -0.23,-0.24 -0.41,-0.52 -0.54,-0.85 -0.13,-0.32 -0.19,-0.67 -0.19,-1.04 0,-0.5 0.07,-0.96 0.22,-1.39 0.14,-0.43 0.36,-0.8 0.64,-1.13 0.28,-0.31 0.62,-0.57 1.03,-0.76 0.42,-0.18 0.89,-0.27 1.44,-0.27z"/>
   <path id="_1" class="fil1" d="M9.61 11.13l-2.69 0 -0.76 1.45 -0.9 0 3.35 -6.01 0.83 0 1.25 6.01 -0.82 0 -0.26 -1.45zm-2.34 -0.65l2.22 0 -0.56 -3.14 -1.66 3.14z"/>
   <polygon id="_2" class="fil1" points="15.69,11.47 14.85,11.47 13.75,7.95 12.72,12.58 11.95,12.58 13.3,6.57 14.05,6.57 15.36,10.79 18.07,6.57 18.89,6.57 18.14,12.58 17.37,12.58 17.92,8.06 "/>
   <path id="_3" class="fil1" d="M24.35 8.16c0,0.37 -0.08,0.68 -0.23,0.95 -0.17,0.26 -0.37,0.46 -0.64,0.64 -0.26,0.17 -0.55,0.28 -0.88,0.36 -0.33,0.08 -0.67,0.11 -1.03,0.11l-0.44 0 -0.41 2.36 -0.81 0 1.05 -6.01 1.55 0c0.28,0 0.53,0.04 0.76,0.12 0.22,0.08 0.41,0.19 0.57,0.32 0.17,0.14 0.29,0.31 0.38,0.5 0.08,0.2 0.13,0.42 0.13,0.65zm-2.73 1.41c0.24,0 0.48,-0.02 0.7,-0.07 0.23,-0.04 0.43,-0.12 0.61,-0.23 0.18,-0.11 0.33,-0.25 0.45,-0.43 0.1,-0.18 0.16,-0.39 0.16,-0.64 0,-0.31 -0.1,-0.55 -0.31,-0.73 -0.21,-0.17 -0.48,-0.26 -0.8,-0.26l-0.77 0 -0.41 2.36 0.37 0z"/>
   <polygon id="_4" class="fil1" points="25.97,6.57 29.25,6.57 29.13,7.23 26.67,7.23 26.32,9.19 28.67,9.19 28.56,9.84 26.21,9.84 25.84,11.92 28.34,11.92 28.22,12.58 24.91,12.58 "/>
   <path id="_5" class="fil1" d="M34.47 8.11c0,0.27 -0.05,0.51 -0.15,0.72 -0.1,0.2 -0.22,0.39 -0.39,0.55 -0.16,0.16 -0.35,0.29 -0.55,0.4 -0.22,0.11 -0.45,0.19 -0.68,0.25l1.63 2.55 -0.94 0 -1.49 -2.42c-0.14,0.01 -0.26,0.02 -0.4,0.02 -0.13,0 -0.24,0 -0.32,0l-0.43 2.4 -0.81 0 1.06 -6.01 1.65 0c0.27,0 0.51,0.04 0.73,0.11 0.23,0.08 0.42,0.18 0.58,0.32 0.15,0.13 0.28,0.29 0.37,0.48 0.09,0.19 0.14,0.41 0.14,0.63zm-2.77 1.42c0.26,0 0.5,-0.03 0.75,-0.08 0.23,-0.05 0.44,-0.13 0.62,-0.24 0.18,-0.1 0.32,-0.25 0.43,-0.42 0.1,-0.17 0.15,-0.37 0.15,-0.61 0,-0.33 -0.1,-0.57 -0.32,-0.73 -0.23,-0.16 -0.5,-0.24 -0.82,-0.24l-0.81 0 -0.42 2.32 0.42 0z"/>
   <polygon class="fil1" points="49.62,12.58 50.67,6.57 54.29,6.57 54.1,7.71 51.92,7.71 51.66,9.11 53.74,9.11 53.54,10.25 51.46,10.25 51.05,12.58 "/>
   <path id="_1_0" class="fil1" d="M60.9 9c0,0.45 -0.08,0.89 -0.23,1.33 -0.15,0.44 -0.38,0.84 -0.67,1.19 -0.3,0.35 -0.65,0.63 -1.07,0.84 -0.42,0.22 -0.91,0.32 -1.44,0.32 -0.45,0 -0.84,-0.07 -1.17,-0.2 -0.34,-0.14 -0.62,-0.33 -0.83,-0.56 -0.23,-0.24 -0.39,-0.51 -0.49,-0.81 -0.11,-0.3 -0.16,-0.62 -0.16,-0.94 0,-0.52 0.08,-1.01 0.25,-1.46 0.16,-0.45 0.4,-0.85 0.69,-1.18 0.3,-0.33 0.65,-0.6 1.08,-0.79 0.41,-0.18 0.87,-0.27 1.38,-0.27 0.45,0 0.85,0.06 1.18,0.19 0.34,0.14 0.61,0.32 0.83,0.54 0.22,0.24 0.38,0.51 0.49,0.82 0.11,0.3 0.16,0.63 0.16,0.98zm-3.33 2.55c0.3,0 0.58,-0.07 0.81,-0.23 0.23,-0.14 0.43,-0.33 0.59,-0.57 0.16,-0.24 0.28,-0.5 0.36,-0.8 0.09,-0.29 0.13,-0.58 0.13,-0.88 0,-0.19 -0.03,-0.38 -0.07,-0.56 -0.05,-0.17 -0.13,-0.33 -0.23,-0.47 -0.1,-0.13 -0.24,-0.24 -0.4,-0.32 -0.17,-0.08 -0.37,-0.12 -0.61,-0.12 -0.3,0 -0.57,0.07 -0.8,0.23 -0.23,0.15 -0.43,0.34 -0.58,0.57 -0.17,0.25 -0.28,0.51 -0.36,0.8 -0.09,0.3 -0.13,0.59 -0.13,0.88 0,0.19 0.03,0.38 0.07,0.55 0.05,0.18 0.13,0.33 0.23,0.47 0.1,0.13 0.23,0.24 0.39,0.32 0.17,0.08 0.36,0.13 0.6,0.13z"/>
   <path id="_2_1" class="fil1" d="M66.79 8.27c0,0.24 -0.04,0.46 -0.11,0.66 -0.08,0.2 -0.18,0.38 -0.31,0.55 -0.14,0.16 -0.3,0.3 -0.49,0.42 -0.19,0.12 -0.4,0.22 -0.62,0.31l1.55 2.37 -1.68 0 -1.3 -2.12 -0.36 0 -0.37 2.12 -1.44 0 1.06 -6.01 2.09 0c0.3,0 0.58,0.05 0.83,0.13 0.24,0.08 0.46,0.2 0.63,0.34 0.17,0.16 0.29,0.33 0.39,0.53 0.09,0.21 0.13,0.45 0.13,0.7zm-2.79 1.08c0.18,0 0.35,-0.02 0.52,-0.05 0.16,-0.03 0.31,-0.09 0.43,-0.17 0.12,-0.08 0.22,-0.18 0.3,-0.3 0.07,-0.13 0.11,-0.28 0.11,-0.47 0,-0.25 -0.07,-0.43 -0.22,-0.52 -0.15,-0.1 -0.33,-0.16 -0.56,-0.16l-0.61 0 -0.3 1.67 0.33 0z"/>
   <polygon id="_3_2" class="fil1" points="71.83,11.6 70.35,11.6 69.7,9.17 68.95,12.58 67.58,12.58 68.92,6.57 70.28,6.57 71.29,10.23 73.54,6.57 75,6.57 74.25,12.58 72.88,12.58 73.31,9.21 "/>
   <path id="_4_3" class="fil1" d="M79.72 11.4l-2.25 0 -0.57 1.18 -1.59 0 3.28 -6.01 1.6 0 1.19 6.01 -1.48 0 -0.18 -1.18zm-1.69 -1.13l1.52 0 -0.35 -2.43 -1.17 2.43z"/>
   <polygon id="_5_4" class="fil1" points="86.4,12.58 84.58,8.91 83.93,12.58 82.51,12.58 83.56,6.57 84.98,6.57 86.81,10.24 87.45,6.57 88.87,6.57 87.81,12.58 "/>
   <path id="_6" class="fil1" d="M93.04 6.47c0.3,0 0.6,0.02 0.88,0.07 0.28,0.04 0.55,0.13 0.81,0.27l-0.26 1.06c-0.18,-0.08 -0.38,-0.14 -0.61,-0.2 -0.22,-0.04 -0.46,-0.07 -0.7,-0.07 -0.32,0 -0.61,0.05 -0.87,0.17 -0.26,0.12 -0.49,0.27 -0.67,0.48 -0.19,0.21 -0.32,0.46 -0.42,0.76 -0.1,0.29 -0.15,0.62 -0.15,0.99 0,0.53 0.15,0.92 0.43,1.17 0.29,0.25 0.68,0.38 1.18,0.38 0.23,0 0.45,-0.02 0.65,-0.05 0.19,-0.02 0.39,-0.08 0.6,-0.15l0.14 1.05c-0.26,0.11 -0.52,0.18 -0.78,0.23 -0.26,0.04 -0.54,0.05 -0.84,0.05 -0.48,0 -0.88,-0.06 -1.23,-0.2 -0.36,-0.14 -0.65,-0.32 -0.89,-0.56 -0.23,-0.24 -0.4,-0.52 -0.52,-0.84 -0.12,-0.32 -0.18,-0.66 -0.18,-1.03 0,-0.51 0.08,-0.98 0.23,-1.42 0.16,-0.43 0.37,-0.81 0.67,-1.14 0.29,-0.31 0.65,-0.57 1.07,-0.75 0.43,-0.18 0.91,-0.27 1.46,-0.27z"/>
   <polygon id="_7" class="fil1" points="96.3,6.57 99.9,6.57 99.71,7.7 97.54,7.7 97.32,8.97 99.37,8.97 99.17,10.1 97.13,10.1 96.89,11.45 99.08,11.45 98.88,12.58 95.24,12.58 "/>
  </g>
 </g>
</svg>
