<?xml version="1.0" encoding="UTF-8"?>
<!DOCTYPE svg PUBLIC "-//W3C//DTD SVG 1.1//EN" "http://www.w3.org/Graphics/SVG/1.1/DTD/svg11.dtd">
<!-- Creator: CorelDRAW 2021.5 -->
<svg xmlns="http://www.w3.org/2000/svg" xml:space="preserve" width="261px" height="50px" version="1.1" style="shape-rendering:geometricPrecision; text-rendering:geometricPrecision; image-rendering:optimizeQuality; fill-rule:evenodd; clip-rule:evenodd"
viewBox="0 0 263.38 50.37"
 xmlns:xlink="http://www.w3.org/1999/xlink"
 xmlns:xodm="http://www.corel.com/coreldraw/odm/2003">
 <defs>
  <style type="text/css">
   <![CDATA[
    .fil0 {fill:white}
    .fil1 {fill:white;fill-rule:nonzero}
   ]]>
  </style>
 </defs>
 <g id="Camada_x0020_1">
  <metadata id="CorelCorpID_0Corel-Layer"/>
  <g id="_105553348489056">
   <g>
    <path class="fil0" d="M98.83 29.82c-0.14,-0.36 -0.16,-1.31 0.39,-2.22l14.13 -23.69c0.18,-0.3 0.34,-0.48 0.46,-0.58 0.05,0.19 0.08,0.53 -0.02,1.04l-3.88 19.63 3.57 -1.44 3.48 -17.57c0.51,-2.6 -0.62,-4.29 -1.97,-4.8 -1.19,-0.46 -3.06,-0.19 -4.41,2.07l-14.13 23.68c-1.09,1.82 -1.24,4.06 -0.38,5.56 0.55,0.98 1.49,1.55 2.56,1.55l6.93 0 0.74 -3.23 -7.47 0z"/>
    <path class="fil0" d="M126.57 18.86c-0.55,-0.98 -1.48,-1.54 -2.55,-1.54l-6.79 0 -0.7 3.12 7.29 0.1c0.13,0.37 0.15,1.31 -0.39,2.23l-14.14 23.69c-0.18,0.29 -0.34,0.47 -0.46,0.58 -0.05,-0.2 -0.08,-0.54 0.02,-1.04l3.91 -19.77 -3.57 1.44 -3.5 17.7c-0.52,2.6 0.62,4.29 1.97,4.81 0.3,0.12 0.65,0.19 1.03,0.19 1.08,0 2.37,-0.58 3.37,-2.26l14.13 -23.69c1.09,-1.82 1.24,-4.05 0.38,-5.56z"/>
   </g>
   <path class="fil1" d="M8.77 17.04c0.73,0 1.47,0.08 2.21,0.22 0.73,0.16 1.38,0.38 1.95,0.64l-0.41 1.64c-0.57,-0.24 -1.16,-0.43 -1.78,-0.57 -0.62,-0.12 -1.26,-0.19 -1.9,-0.19 -1.07,0 -2.02,0.19 -2.85,0.57 -0.83,0.38 -1.55,0.9 -2.12,1.57 -0.57,0.66 -0.99,1.45 -1.28,2.37 -0.31,0.93 -0.45,1.93 -0.45,3.02 0,0.81 0.12,1.55 0.33,2.19 0.21,0.66 0.55,1.23 1,1.71 0.45,0.47 1,0.83 1.69,1.09 0.69,0.26 1.47,0.41 2.37,0.41 0.57,0 1.14,-0.05 1.74,-0.15 0.57,-0.07 1.11,-0.21 1.66,-0.4l0.21 1.61c-0.57,0.22 -1.18,0.38 -1.85,0.5 -0.66,0.12 -1.35,0.17 -2.07,0.17 -1.11,0 -2.14,-0.19 -3.01,-0.55 -0.91,-0.35 -1.67,-0.85 -2.29,-1.49 -0.61,-0.65 -1.09,-1.38 -1.42,-2.24 -0.33,-0.85 -0.5,-1.78 -0.5,-2.75 0,-1.31 0.19,-2.52 0.57,-3.66 0.38,-1.12 0.95,-2.12 1.69,-2.97 0.73,-0.83 1.64,-1.5 2.73,-2 1.09,-0.5 2.35,-0.74 3.78,-0.74z"/>
   <path id="_1" class="fil1" d="M25.33 29.35l-7.08 0 -2.02 3.8 -2.37 0 8.84 -15.82 2.18 0 3.31 15.82 -2.17 0 -0.69 -3.8zm-6.17 -1.73l5.87 0 -1.48 -8.27 -4.39 8.27z"/>
   <polygon id="_2" class="fil1" points="41.35,30.23 39.14,30.23 36.25,20.96 33.54,33.15 31.52,33.15 35.06,17.33 37.05,17.33 40.5,28.45 47.65,17.33 49.81,17.33 47.82,33.15 45.8,33.15 47.25,21.25 "/>
   <path id="_3" class="fil1" d="M64.19 21.51c0,0.98 -0.21,1.81 -0.61,2.5 -0.43,0.69 -0.98,1.23 -1.67,1.68 -0.69,0.45 -1.45,0.76 -2.33,0.95 -0.87,0.22 -1.78,0.31 -2.7,0.31l-1.17 0 -1.09 6.2 -2.14 0 2.78 -15.82 4.09 0c0.73,0 1.4,0.09 1.99,0.31 0.6,0.21 1.1,0.5 1.52,0.85 0.43,0.36 0.76,0.81 1,1.31 0.22,0.52 0.33,1.09 0.33,1.71zm-7.2 3.73c0.65,0 1.26,-0.07 1.86,-0.19 0.59,-0.12 1.14,-0.33 1.61,-0.62 0.48,-0.28 0.86,-0.66 1.17,-1.14 0.28,-0.45 0.43,-1.02 0.43,-1.68 0,-0.81 -0.27,-1.45 -0.81,-1.9 -0.55,-0.46 -1.26,-0.69 -2.12,-0.69l-2.02 0 -1.09 6.22 0.97 0z"/>
   <polygon id="_4" class="fil1" points="68.48,17.33 77.1,17.33 76.79,19.06 70.31,19.06 69.38,24.22 75.58,24.22 75.3,25.95 69.09,25.95 68.12,31.42 74.7,31.42 74.39,33.15 65.67,33.15 "/>
   <path id="_5" class="fil1" d="M90.86 21.39c0,0.69 -0.11,1.33 -0.38,1.88 -0.26,0.55 -0.59,1.05 -1.02,1.45 -0.43,0.43 -0.92,0.78 -1.47,1.07 -0.57,0.28 -1.16,0.5 -1.78,0.64l4.3 6.72 -2.47 0 -3.95 -6.36c-0.35,0.02 -0.69,0.04 -1.04,0.04 -0.36,0 -0.64,0 -0.86,0l-1.11 6.32 -2.14 0 2.78 -15.82 4.37 0c0.69,0 1.33,0.09 1.92,0.28 0.6,0.22 1.1,0.48 1.52,0.84 0.41,0.35 0.74,0.78 0.98,1.28 0.24,0.5 0.35,1.07 0.35,1.66zm-7.29 3.73c0.69,0 1.33,-0.07 1.97,-0.21 0.62,-0.12 1.17,-0.33 1.64,-0.62 0.48,-0.28 0.86,-0.66 1.14,-1.12 0.26,-0.45 0.41,-0.97 0.41,-1.61 0,-0.86 -0.29,-1.5 -0.86,-1.93 -0.59,-0.4 -1.31,-0.61 -2.16,-0.61l-2.14 0 -1.09 6.1 1.09 0z"/>
   <polygon class="fil1" points="130.81,33.15 133.59,17.33 143.14,17.33 142.62,20.32 136.87,20.32 136.2,24.03 141.67,24.03 141.14,27.02 135.68,27.02 134.59,33.15 "/>
   <path id="_1_0" class="fil1" d="M160.56 23.72c0,1.19 -0.21,2.35 -0.62,3.52 -0.4,1.16 -0.99,2.21 -1.75,3.13 -0.79,0.93 -1.71,1.67 -2.83,2.21 -1.12,0.57 -2.4,0.86 -3.8,0.86 -1.19,0 -2.21,-0.19 -3.09,-0.55 -0.88,-0.35 -1.62,-0.85 -2.19,-1.47 -0.59,-0.62 -1.02,-1.33 -1.28,-2.14 -0.29,-0.78 -0.43,-1.61 -0.43,-2.47 0,-1.38 0.21,-2.66 0.67,-3.85 0.42,-1.19 1.04,-2.23 1.83,-3.11 0.78,-0.88 1.71,-1.57 2.82,-2.07 1.1,-0.5 2.31,-0.74 3.66,-0.74 1.19,0 2.24,0.17 3.12,0.53 0.87,0.35 1.59,0.83 2.18,1.42 0.57,0.62 1,1.33 1.28,2.14 0.29,0.81 0.43,1.66 0.43,2.59zm-8.79 6.73c0.81,0 1.52,-0.19 2.14,-0.6 0.62,-0.38 1.14,-0.88 1.57,-1.52 0.4,-0.62 0.73,-1.31 0.95,-2.09 0.21,-0.78 0.33,-1.54 0.33,-2.33 0,-0.5 -0.07,-1 -0.19,-1.47 -0.12,-0.45 -0.33,-0.88 -0.59,-1.24 -0.29,-0.35 -0.65,-0.64 -1.07,-0.85 -0.45,-0.22 -0.98,-0.31 -1.59,-0.31 -0.81,0 -1.53,0.19 -2.12,0.59 -0.62,0.41 -1.14,0.91 -1.54,1.52 -0.43,0.64 -0.74,1.33 -0.95,2.12 -0.22,0.78 -0.34,1.54 -0.34,2.3 0,0.5 0.07,1 0.19,1.45 0.12,0.48 0.34,0.88 0.6,1.24 0.26,0.35 0.61,0.64 1.04,0.85 0.43,0.22 0.95,0.34 1.57,0.34z"/>
   <path id="_2_1" class="fil1" d="M176.08 21.8c0,0.64 -0.09,1.21 -0.28,1.73 -0.22,0.55 -0.48,1.02 -0.83,1.45 -0.36,0.43 -0.79,0.81 -1.29,1.12 -0.5,0.31 -1.04,0.59 -1.64,0.81l4.09 6.24 -4.42 0 -3.44 -5.58 -0.93 0 -0.97 5.58 -3.81 0 2.78 -15.82 5.52 0c0.8,0 1.54,0.12 2.18,0.33 0.64,0.22 1.21,0.52 1.67,0.9 0.45,0.41 0.78,0.86 1.02,1.41 0.23,0.54 0.35,1.16 0.35,1.83zm-7.36 2.85c0.47,0 0.92,-0.05 1.38,-0.14 0.42,-0.08 0.8,-0.22 1.14,-0.43 0.31,-0.22 0.57,-0.48 0.78,-0.81 0.19,-0.33 0.29,-0.74 0.29,-1.24 0,-0.64 -0.19,-1.11 -0.57,-1.37 -0.41,-0.27 -0.88,-0.41 -1.48,-0.41l-1.61 0 -0.79 4.4 0.86 0z"/>
   <polygon id="_3_2" class="fil1" points="189.37,30.59 185.47,30.59 183.76,24.17 181.77,33.15 178.16,33.15 181.7,17.33 185.28,17.33 187.95,26.98 193.89,17.33 197.74,17.33 195.74,33.15 192.13,33.15 193.27,24.29 "/>
   <path id="_4_3" class="fil1" d="M210.17 30.07l-5.92 0 -1.52 3.08 -4.18 0 8.65 -15.82 4.2 0 3.14 15.82 -3.9 0 -0.47 -3.08zm-4.45 -3l4 0 -0.91 -6.39 -3.09 6.39z"/>
   <polygon id="_5_4" class="fil1" points="227.78,33.15 222.98,23.48 221.27,33.15 217.51,33.15 220.29,17.33 224.05,17.33 228.87,27 230.56,17.33 234.29,17.33 231.51,33.15 "/>
   <path id="_6" class="fil1" d="M245.3 17.04c0.78,0 1.56,0.08 2.3,0.19 0.74,0.12 1.45,0.36 2.14,0.72l-0.69 2.8c-0.47,-0.21 -1,-0.38 -1.59,-0.52 -0.6,-0.12 -1.21,-0.19 -1.85,-0.19 -0.86,0 -1.62,0.14 -2.31,0.45 -0.69,0.31 -1.28,0.71 -1.76,1.26 -0.5,0.55 -0.85,1.21 -1.11,1.99 -0.27,0.79 -0.38,1.64 -0.38,2.62 0,1.4 0.38,2.42 1.14,3.09 0.76,0.66 1.78,1 3.09,1 0.61,0 1.18,-0.05 1.71,-0.12 0.52,-0.07 1.04,-0.22 1.59,-0.41l0.38 2.78c-0.69,0.29 -1.38,0.48 -2.07,0.6 -0.69,0.09 -1.42,0.14 -2.21,0.14 -1.26,0 -2.33,-0.17 -3.25,-0.55 -0.93,-0.35 -1.71,-0.83 -2.33,-1.47 -0.62,-0.62 -1.07,-1.35 -1.38,-2.21 -0.31,-0.83 -0.48,-1.73 -0.48,-2.71 0,-1.35 0.22,-2.59 0.62,-3.75 0.41,-1.14 0.98,-2.14 1.76,-3 0.76,-0.83 1.71,-1.49 2.83,-1.99 1.11,-0.48 2.4,-0.72 3.85,-0.72z"/>
   <polygon id="_7" class="fil1" points="253.88,17.33 263.38,17.33 262.86,20.3 257.16,20.3 256.56,23.65 261.98,23.65 261.46,26.62 256.07,26.62 255.42,30.18 261.2,30.18 260.68,33.15 251.1,33.15 "/>
  </g>
 </g>
</svg>
