<?xml version="1.0" encoding="UTF-8"?>
<!DOCTYPE svg PUBLIC "-//W3C//DTD SVG 1.1//EN" "http://www.w3.org/Graphics/SVG/1.1/DTD/svg11.dtd">
<!-- Creator: CorelDRAW 2021.5 -->
<svg xmlns="http://www.w3.org/2000/svg" xml:space="preserve" width="3.321mm" height="5.2917mm" version="1.1" style="shape-rendering:geometricPrecision; text-rendering:geometricPrecision; image-rendering:optimizeQuality; fill-rule:evenodd; clip-rule:evenodd"
viewBox="0 0 1.8 2.87"
 xmlns:xlink="http://www.w3.org/1999/xlink"
 xmlns:xodm="http://www.corel.com/coreldraw/odm/2003">
 <defs>
  <style type="text/css">
   <![CDATA[
    .fil0 {fill:white}
   ]]>
  </style>
 </defs>
 <g id="Camada_x0020_1">
  <metadata id="CorelCorpID_0Corel-Layer"/>
  <g id="_105553230519424">
   <path class="fil0" d="M0.19 1.7c-0.01,-0.02 -0.01,-0.07 0.02,-0.13l0.8 -1.35c0.01,-0.02 0.02,-0.03 0.03,-0.03 0,0.01 0,0.03 -0,0.06l-0.22 1.12 0.2 -0.08 0.2 -1c0.03,-0.15 -0.04,-0.24 -0.11,-0.27 -0.07,-0.03 -0.17,-0.01 -0.25,0.12l-0.8 1.35c-0.06,0.1 -0.07,0.23 -0.02,0.32 0.03,0.06 0.08,0.09 0.15,0.09l0.39 0 0.04 -0.18 -0.43 0z"/>
   <path class="fil0" d="M1.77 1.07c-0.03,-0.06 -0.08,-0.09 -0.15,-0.09l-0.39 0 -0.04 0.18 0.41 0.01c0.01,0.02 0.01,0.07 -0.02,0.13l-0.81 1.35c-0.01,0.02 -0.02,0.03 -0.03,0.03 -0,-0.01 -0,-0.03 0,-0.06l0.22 -1.13 -0.2 0.08 -0.2 1.01c-0.03,0.15 0.04,0.24 0.11,0.27 0.02,0.01 0.04,0.01 0.06,0.01 0.06,0 0.13,-0.03 0.19,-0.13l0.8 -1.35c0.06,-0.1 0.07,-0.23 0.02,-0.32z"/>
  </g>
 </g>
</svg>
